
<svg xmlns="http://www.w3.org/2000/svg" width="1024" height="1024">
  <path fill="#2B2A27" d="M711.1 644.3c-.6.6-2.8 1.1-4.9 1.2-27.2.3-392.2-1.2-392.7-1.7-.4-.3 26.5-27.9 59.7-61.2l60.3-60.7h4.2c3.4 0 5.3 1 10.5 5 7.5 5.7 10 7.1 12.6 7.1 1.2 0 6-4.5 12.8-12.2 31.6-35.3 34.3-38.7 37.3-38.9h1l1 .1c4.1 0 4.6.4 15 11.3 6 6.1 18.4 19.5 27.7 29.7 24.1 26.4 26.7 29 29.1 29 2 0 4-1.2 15.7-9.3a14 14 0 0 1 7.5-2.7c3.5 0 5 1.2 23.2 19.8 74 75 81.1 82.4 80 83.5Z"/>
  <path fill="#B5D452" d="M506.1 469.5a19.7 19.7 0 0 1-6.2 4.5c-1.2 0-5.8-5.4-23.5-27.4-14-17.6-21.6-30-25.3-41.4a63.3 63.3 0 0 1 7.7-53.9 68 68 0 0 1 35.2-25.9 80.2 80.2 0 0 1 36.8.4 68.3 68.3 0 0 1 24.9 14.5c16 15 22.8 35.4 18.9 57-2.9 15.7-8.7 26.3-27.8 50.5l-14.6 19c-2.7 3.5-5.5 6.1-6.6 6.2-1 0-3.8-1.8-6.3-4s-5.4-4-6.5-4c-1 0-4 2-6.7 4.5Zm-1.9-52c14.8 4 30.5-3.5 36.7-17.7a32 32 0 0 0-16.4-42c-6.3-2.8-17.9-3-24-.4a32 32 0 0 0-10.7 52c4.2 4.4 7.3 6.1 14.4 8Z"/>
  <path fill="#FDFDFD" d="M0 0h1024v1024H0Zm711.1 644.3c.8-.8-2.7-5-33.2-36a82 82 0 0 0 10.2 9.2c1.3-.8-1.5-9-3.1-9l-4.3-.4c-2 0-2.7-.6-2.7-2 0-1-.7-2.4-1.5-3.1-.8-.7-1.5-.9-1.5-.4 0 1.6-2.9-4.5-3.2-6.8-.2-1.4-1.1-2.4-2.3-2.6-3.9-.6-7.5-2.4-6.8-3.5.4-.7 0-.8-1.2-.4-1.2.5-1.6.3-1.2-.7.6-1.6-2.6-5-3.6-4-.7.7-1-1.6-.8-4.7.1-.9-.4-2-1.1-2.6-1.7-1.4-7.8-2.2-7.8-1.1 0 .3 2.8 3.4 7.2 8l-23.1-23.5c-18-18.3-19.7-19.7-23-19.7 2-.1 3.8.3 4.7 1.2 2 2 1.4-.6-.5-3-1.7-1.8-2.2-1.8-6.6-.7-2.6.7-5.3 2-6 2.9-1 1.5-4 2.6-7.4 2.9-.7 0-1 .4-.7.9.3.4 0 .8-.7.8s-1 .3-.6.6c.4.4-.5 1.3-2 2-3.1 1.7-3.6 1.7-2.7.1.5-.9.4-1-.5 0-1.8 1.5-5.1.4-5.1-1.8 0-1-.5-2.1-1.1-2.5-.8-.5-1-.3-.4.7.5.8-.3.3-1.8-1-1.4-1.3-2.3-2.9-2-3.6.4-1.2-5.5-6.3-6.7-5.8-.7.3-2-4.9-1.5-5.7.5-.8-4.4-.4-5.3.4-.1.2.7 1.3 2 3a3345 3345 0 0 1-7.6-8.4l-1.5-1.6.9.9c4.9 5.2 5.6 5.7 4 2.7-.6-1.1-.8-2-.4-2s0-.9-1-2c-1-1-2.3-1.7-2.8-1.4-.5.3-1.7 0-2.6-.7-.7-.6-.1.3 1.3 1.9a2370 2370 0 0 0-25.6-27.5l-3.9-4.1c4.2 4.2 10.3 10.7 20 21a27 27 0 0 0 6.4 5.8c.6 0 .5-.4-.2-.9-.8-.4-1.3-1.2-1-1.7 0-.5-1.7-2.2-4-3.7-2.4-1.6-4.2-3.6-4.2-4.7 0-1-1-2.8-2-4.1-1.2-1.3-1.9-1.8-1.5-1.1.3.6.2 1.2-.3 1.2-1.3 0-3.6-2.8-3.8-4.8a7 7 0 0 0-1.9-3.1c-1.5-1.5-1.5-1.4-1 .4.7 1.7.6 1.8-.6.7-.8-.7-1.4-2-1.4-3 0-.9-1-2.2-2.4-2.8a21 21 0 0 1-4.5-3.6c-4.8-5.4-10.1-7.2-13-4.4-.7.9-1.6 1.2-2 .9-.3-.4-.6 0-.6.6 0 .7-.5.9-1.1.5-.7-.4-1-.3-.6.2.6 1.1-4.7 7.6-5.7 6.9-.3-.3-.4-.2-.1.1.9 1.3-4.6 5.4-7 5.4-2.5 0-3.4 1-3.9 4.4-.1.9-1.7 2.9-3.5 4.5-1.7 1.6-3 3.3-3 3.7.2.5 0 2-.5 3.1-.5 1.7-1.5 2.3-3.6 2.3-3.4 0-4.6 1.4-2.8 3.4 1.4 1.5 1.8 1.6 10.5-8A8720.9 8720.9 0 0 1 469 527c2-2.5 3.6-4.9 3.7-5.6.2-1.2 0-1.4-.9-.5-1.4 1.5-3 1.4-2.1 0 .4-.7.3-1-.3-.6s-1 1.8-.8 3.1c.2 1.4-.3 3-1 3.7-.9.6-1.5.9-1.5.5s-1 .2-2 1.3c-2.6 2.3-7.2 3.1-9.4 1.6-.9-.7-1.3-1.4-1-1.7.8-.9-4.7-4.8-6.7-4.8-1 0-2-.5-2.4-1-.3-.5-1.1-1-1.7-1-.6 0 .9 1.5 3.3 3.2 2.4 1.8 5 3.1 5.8 3 .7-.2 1 .1.7.7-.3.4.2 1.2 1.1 2a138 138 0 0 1-5.5-4c-5.2-4-7-5-10.5-5h-2c2.4-.7 2.1-.8-1.7-.4l-5.2.4c-.4 0-1.4 1.5-2.3 3.1-1.2 2.3-2.3 3-4.4 3-3.7 0-5.5 2.2-5.5 7l-.1 4 6.1-6.1-49.4 49.7c-33.2 33.3-60 60.9-59.7 61.2.5.5 365.5 2 392.8 1.7 2 0 4.2-.6 4.8-1.2ZM504.5 478c2.8 1.2 4.3 1.2 5 0 .4-.6 1.8-1.5 3-2 3.6-1.4 2.2-4.3-1.8-3.8l-3 .5 2.4-1.8c1.3-1 2.7-1.9 3-1.9 1.4 0 4.1 4 3.6 5.3-.3.8-.1 1.9.4 2.4 1.4 1.4 10 .3 11.7-1.3.7-.8 2-2 3-2.6 1-.7 2.9-2.9 4.2-4.8 3.3-4.7 5-6 7.8-5.3 1.4.3 2.2 0 2.2-.7s-.7-1-1.5-.6c-1.1.4-1.2 0-.4-2 .5-1.5 2-4 3.2-5.5l4-5.4c1-1.4 3-3 4.3-3.5 1.3-.5 2.4-1.6 2.4-2.4 0-2.2 4.2-8.2 6.5-9.2 1.3-.6 2.1-2 2.3-4.4.4-4.1 3-7.6 4.6-6 1.5 1.5 2.6 1.2 2.6-.7 0-.9.7-2.5 1.6-3.5 1.6-1.7 1.6-1.8 0-1.8-.9 0-1.6.4-1.6 1s-.5 1-1.1 1c-.8 0-.8-.4-.2-1.3a11 11 0 0 0 1.6-3.7 66.3 66.3 0 0 0 4.5-23.7 61 61 0 0 0-6.1-33.2c-5.2-10.4-6-11.6-11.2-16.4l-8.5-8a19 19 0 0 0-5.8-4.2c-3.2-1-2.8-2.9.5-2 5.2 1.1 5.8 1 5.8-1 0-1.8-.6-2-7.2-2-6.1.1-7.2-.1-7.6-1.7-.6-2-4.6-2.5-6.3-.9-.5.6-4.4.3-10.4-.9a34.4 34.4 0 0 0-19.8.2c-8.7 1.8-10.7 1.9-12.7.8-2-1-2.7-1-4 0-.8.7-1.3 1.6-1 2 .3.5-2.6.6-6.4.3-6-.5-7.2-.4-7.7 1.1-1 2.6 1.2 4.3 3.6 2.8 2.3-1.4 5-1.6 5-.3 0 .6-1 1.3-2.3 1.6a20 20 0 0 0-5.8 4.4l-8.5 8c-5.1 4.6-6 5.8-11 16.2a61.7 61.7 0 0 0-6.2 33.1c.4 9.4 1 13.6 2.6 17.8 2.6 6.5 2.6 7 .7 7-2.2 0-1.8 2.6.9 5.5 1.4 1.5 3 2.3 4 2 1.8-.8 4.6 4 4.6 8 0 1.4.5 2.5 1 2.5 2.4 0 7 6.4 7 9.7 0 2.8.3 3.2 3.2 3.5 2.7.3 3.3.8 4 3.5.5 2 1.9 3.8 3.6 4.7 4.2 2.2 7.7 7.5 6.4 9.7-1.3 2-.6 2.9 2.2 2.9 1.9 0 10.6 8.5 10.6 10.4 0 .4 1.5.6 3.3.3a11 11 0 0 1 5.2.3Zm5.9-66.3c.4 2.6.1 3.3-1.2 3.3-2.5-.1-7.5-2.5-9-4.4a5 5 0 0 0-3.2-1.6c-2.8 0-7-4-7-6.6 0-1.3-.5-2.4-1-2.4-1.2 0-4-6-4-8.4 0-1 .6-1.3 1.5-1 1 .4 1.8-.3 2.4-1.8 1.1-3 .3-7.8-1.5-8.5-1.7-.6-1.8-2.7-.3-5.4.8-1.6 1.3-1.8 2.5-.8 1.8 1.5 5-1 5.8-4.7a4.2 4.2 0 0 1 3.1-3c1.6-.4 2.5-1.3 2.5-2.5 0-2.7 4.5-4.7 7-3 2.5 1.4 4.5 1.4 6.9 0 2.6-1.7 7-.3 8.3 2.6.8 1.8 2 2.5 4 2.5 2.5 0 2.9.4 2.6 2.3-.3 1.8.1 2.2 2.5 2 2.3-.2 2.7.2 2.7 2.6 0 1.6.7 3.4 1.5 4.1.8.7 1.5 2.7 1.5 4.4 0 1.8.5 3.7 1.2 4.4 1.4 1.4-.8 12.6-2.3 11.6-.5-.3-.9-1.2-.9-2 0-1.7-1.2-1.8-2.8-.2-1.7 1.7-1.5 4.8.3 5.4.8.3 1.5 1.2 1.5 2 0 1.7-5.8 6.4-8 6.4-1 0-2.3.7-3 1.6a15 15 0 0 1-9.6 4.4c-2.2 0-2.5-.3-1.6-1.2 1.5-1.5 1.6-6.4 0-7.4s-3 1.7-2.4 5.4ZM314.1 638.1c.5 1 1.2 1.9 1.6 1.9.8 0 65.2-65.4 64.7-65.9-.2-.2-1.9.4-3.8 1.3s-4 1.6-4.6 1.6c-1.7 0-3.7 2.3-3.3 3.7.5 1.5-3.5 5.6-4.7 4.8-.6-.4-1 .1-1 1 0 1-.5 1.3-1.1.9-.7-.4-1-.3-.6.3 1 1.6-1.6 4.3-4.8 4.9-3.3.6-4.6 2-3.8 4 .3.8 0 1.4-.8 1.4-.7 0-1 .3-.6.6.8.8-1.6 3.3-2.6 2.7-.4-.2-.7 0-.7.7 0 .6-.5.8-1.1.4-.7-.4-1-.3-.5.4.3.6.2 1.3-.4 1.7-.5.3-1 1.4-1 2.4s-1.1 2.3-2.5 3c-1.4.5-2.5 1.6-2.5 2.2 0 .6-.7.8-1.7.4-1-.3-1.4-.3-1 .1 1 1-6.3 7.5-7.5 6.8-.6-.4-.4.4.2 1.7.7 1.3 1 2 .5 1.7-.4-.4-1.3-.1-2 .6-.8.7-2.5 1.2-4 1-2.7-.3-3.7.8-4.1 4.4-.3 2.5-2.3 5.6-3.2 4.7-.3-.3-1.3.2-2.3 1.1-1.4 1.3-1.6 2.1-.8 3.5Zm313.1-81.4 12.5 12.3s0-1.7-.4-3.8c-.7-4-1.7-5.2-4.9-5.2-1.1 0-2.9-.9-3.9-2s-1.4-2-1-2c1.1 0-1.3-2.5-2.5-2.6l-2-.3c-.6 0-1-.7-1-1.4.4-2.3 0-5.2-.9-6.5-.8-1.3-8.1-2.5-8.1-1.3 0 .3 5.5 6.1 12.2 12.8Zm-247.9 14.8c-.3 1.7 1 1.7 3 .5h-.3a1 1 0 0 1-1-1c0-.6.4-.8 1-.5.6.3 1 .8 1 1 1.7-1 3.8-2.8 6-5l6.4-6.5h-4.1c-4.6 0-7.3 2-7.3 5.3 0 3.2-1.2 4.4-3.8 4.2-1.3 0-2.5.2-2.8.7-.3.5 0 .7.8.6.7-.2 1.2.2 1.1.7Zm329.4 68.7c3 3 4.6 3.9 2 1-1.8-2-2.3-3.7-.9-2.8.4.2.8-.7.8-2.2 0-2.2-.6-2.6-2.8-2.7-3.8 0-4-.4-5-7.2-.1-1.1-7.8-2.4-7.8-1.2 0 .3 2.5 3 5.5 5.8 3 2.9 5.5 5.5 5.5 5.9 0 .3 1.2 1.9 2.7 3.4ZM400 551.5v4l5.4-5.4c3.2-3.2 5.2-6 4.9-6.8-.4-.9-1-1-1.7-.4-.6.6-2.5 1.2-4 1.5-3.7.7-4.6 2-4.6 7Zm152.6-93.2c1.6 1.6 4.4-1.5 4.4-4.8 0-3.6-1.5-4.6-3.8-2.3-1.3 1.3-1.6 6-.6 7.1Zm-21.9-74c1.3 1.4 3.8.2 3.8-1.8 0-1.3-.8-2.1-2.3-2.3-1.6-.3-2.2.2-2.2 1.6 0 1 .3 2.2.7 2.6Zm42 47c.4.6 1.3.2 2.4-1.2 2-2.5 1.7-4.3-.6-3.5-1.7.7-2.7 3.2-1.8 4.6ZM504 367.4a4 4 0 0 0 3.4 1.3c3.4-.5 2.4-2.3-1.3-2.6-3.1-.3-3.3-.2-2.1 1.3ZM493.5 404c.8 1.2 3.5 1.2 3.5 0 0-1.4-1.8-2.3-3-1.6-.6.4-.8 1-.5 1.6Zm-8 70.8c.8 1.3 3.5 1.5 3.5.2 0-1-3-2.4-3.7-1.7-.3.3-.2 1 .2 1.5Zm41.5 5c0 .5 1.2.6 2.6.3 2.2-.4 2.4-.6 1-1.4-1.6-1-3.6-.3-3.6 1.1ZM464 331c0 .6.7 1 1.5 1s1.5-.4 1.5-1-.7-1-1.5-1-1.5.4-1.5 1Zm93 0c0 .6.7 1 1.5 1s1.5-.4 1.5-1-.7-1-1.5-1-1.5.4-1.5 1Zm103 256.6c0 1.1-1.9.2-2.4-1.2s-.4-1.5.9-.4c.8.7 1.5 1.4 1.5 1.6ZM547 463a1 1 0 0 0 2 0c0-.6-.5-1-1-1a1 1 0 0 0-1 1ZM316.1 635.3c-1.3 1.6-2.1 2.2-2.1 1.3 0-.2.8-1 1.8-1.7 1.5-1.3 1.6-1.2.3.4Zm264.5-84.7c1.6 1.4 3.4 2.4 4.2 2.4-1 0-2-.4-4.2-2.4ZM508.3 484ZM459 533.7c1 .3 2 .3 2.9-.1-.4.3-.8.4-1 .4-.6 0-1.2 0-2-.3ZM382.4 572Z"/>
  <path fill="#FDFDF8" d="M708.7 640.2a13.5 13.5 0 0 1-2.7-3.5c0-.3-2.5-3-5.5-5.8-3-2.9-5.5-5.5-5.5-5.8 0-1.2 7.7 0 7.8 1.2 1 6.8 1.2 7.2 5 7.2 2.2 0 2.7.5 2.8 2.7 0 1.5-.4 2.4-.8 2.2-1.4-.9-.9.9.9 2.8 2.6 2.9 1 2-2-1Zm-394.6-2c-.8-1.5-.6-2.3.8-3.6 1-.9 2-1.4 2.3-1 .9.8 2.9-2.3 3.2-4.8.4-3.6 1.4-4.6 4.2-4.3 1.4.1 3.1-.4 3.8-1 .8-.8 1.7-1 2.1-.7.4.4.2-.4-.5-1.7-.6-1.3-.8-2-.2-1.7 1.2.7 8.5-5.8 7.5-6.8-.4-.4 0-.4 1 0 1 .3 1.7.1 1.7-.5s1.1-1.7 2.5-2.3c1.4-.6 2.5-2 2.5-2.9 0-1 .5-2 1-2.4.6-.4.7-1.1.4-1.7-.4-.7-.2-.8.5-.4.6.4 1.1.2 1.1-.4 0-.6.3-1 .8-.7 1 .6 3.3-1.9 2.5-2.7-.4-.3 0-.6.6-.6.7 0 1-.6.8-1.3-.8-2.1.5-3.5 3.8-4.1 3.2-.6 5.8-3.3 4.8-4.9-.3-.6-.1-.7.6-.3.6.4 1.1 0 1.1-.9s.4-1.4 1-1c1.2.8 5.2-3.3 4.7-4.8-.4-1.4 1.6-3.7 3.3-3.7.7 0 2.7-.7 4.6-1.6 2-1 3.6-1.5 3.8-1.3.5.5-63.9 65.9-64.7 65.9-.4 0-1-.8-1.6-1.9Zm2-3c1.3-1.5 1.2-1.6-.4-.3-1 .7-1.7 1.5-1.7 1.7 0 .9.8.3 2.1-1.4Zm351-37.7a381 381 0 0 1-20.1-21.3c0-1.1 6.1-.3 7.8 1 .7.6 1.2 1.8 1.1 2.7-.3 3 .1 5.4.8 4.8 1-1.1 4.2 2.3 3.6 4-.4 1 0 1.1 1.3.6 1-.4 1.5-.3 1 .4-.6 1 3 2.9 6.9 3.5 1.2.2 2.1 1.2 2.3 2.6.4 2.3 3.2 8.4 3.2 6.8 0-.5.7-.3 1.5.4s1.5 2 1.5 3.1c0 1.4.8 2 2.8 2l4.2.3c1.6.1 4.4 8.3 3 9-.4.3-9.8-8.6-20.9-19.9Zm-7.1-9.9c0-.2-.7-1-1.5-1.6-1.3-1-1.4-1-1 .4.6 1.4 2.5 2.3 2.5 1.2Zm-280.7-16c.1-.6-.4-1-1.1-.8-.8.1-1.1-.1-.8-.6.3-.5 1.6-.8 2.8-.7 2.6.2 3.8-1 3.8-4.2 0-3.4 2.7-5.3 7.3-5.3h4.1l-6.3 6.4c-5.7 5.7-10.3 8.1-9.8 5.1Zm3.7 0c0-.3-.4-.8-1-1.1-.6-.3-1-.1-1 .4 0 .6.4 1.1 1 1.1s1-.2 1-.4Zm244.2-14.9A184.5 184.5 0 0 1 615 544c0-1.2 7.3 0 8.1 1.3.9 1.3 1.3 4.2 1 6.5-.1.7.3 1.4.9 1.4l2 .3c1.2.1 3.6 2.6 2.5 2.6-.4 0 0 .9 1 2s2.8 2 3.9 2c3.2 0 4.2 1.1 4.9 5.3l.4 3.7-12.5-12.3ZM400 551.5c0-5 1-6.4 4.6-7 1.5-.4 3.4-1 4-1.6.8-.6 1.3-.5 1.7.4.3.9-1.7 3.6-4.9 6.8l-5.4 5.3v-4Zm179.1-2.3c-9-8.9-18.4-19.2-17.9-19.8.9-.8 5.8-1.2 5.3-.4-.5.9.8 6 1.5 5.7 1.2-.5 7 4.6 6.6 5.8-.2.7.7 2.4 2.1 3.6 1.5 1.3 2.3 1.8 1.8 1-.5-1-.4-1.2.4-.7.6.4 1.1 1.5 1.1 2.5 0 2.2 3.3 3.3 5 1.7 1-.8 1.1-.8.6.1-1 1.6-.5 1.6 2.8 0 1.4-.8 2.3-1.7 2-2-.4-.4-.2-.7.5-.7s1-.4.7-.8c-.3-.5 0-1 .7-1 3.4-.2 6.3-1.4 7.4-2.8.7-1 3.4-2.2 6-3 4.4-1 5-1 6.5.9 2 2.3 2.5 4.8.6 2.9-2.1-2.1-8.2-1.4-12.4 1.5-11.6 8-13.8 9.3-15.5 9.3-1.1 0-3.7-1.7-5.8-3.8Zm-162.5-14.1c0-4.9 1.8-7.1 5.5-7.1 2.1 0 3.2-.7 4.4-3 .9-1.6 1.9-3 2.3-3l5.2-.5c4-.4 4.1-.3 1.6.5a46 46 0 0 0-11 9l-8.1 8v-4Zm38.6-3.1c-1.8-1.1-3-2.5-2.6-3 .3-.7 0-1-.8-.9-.7.2-3.3-1.1-5.7-2.9-2.4-1.8-4-3.2-3.3-3.2.6 0 1.4.5 1.7 1 .3.5 1.4 1 2.4 1 2 0 7.5 4 6.7 4.8-.3.3.1 1 1 1.7 2.2 1.5 6.8.7 9.3-1.6 1.2-1.1 2.1-1.7 2.1-1.3 0 .4.6.1 1.4-.5.8-.7 1.3-2.3 1.1-3.7-.1-1.3.2-2.7.8-3 .6-.4.7-.2.3.5-1 1.4.6 1.5 2.1 0 .9-.9 1.1-.7 1 .5-.2.9-2.4 4-5 7.1-5.3 6.1-7.3 6.6-12.5 3.5Zm99.8-8.7c-2.5-2.6-3.7-4.1-2.8-3.4 1 .7 2.1 1 2.6.7.5-.3 1.7.3 2.7 1.4 1 1.1 1.5 2 1.1 2-.4 0-.2.9.4 2 1.6 3 .9 2.5-4-2.7Zm-80.8-6c-1.8-1.9-.6-3.3 2.8-3.3 2 0 3-.6 3.6-2.3a9 9 0 0 0 .6-3c-.2-.6 1.2-2.3 3-3.8 1.7-1.6 3.3-3.6 3.4-4.5.5-3.3 1.4-4.4 3.8-4.4 2.5 0 8-4.1 7-5.4-.2-.3-.1-.4.2-.1 1 .7 6.3-5.8 5.7-6.9-.4-.5 0-.6.6-.2.6.4 1.1.2 1.1-.5s.3-1 .6-.6c.4.3 1.3 0 2-.9 2.9-2.8 8.2-1 13 4.4 1.2 1.3 3.2 3 4.5 3.6 1.3.6 2.4 2 2.4 2.8 0 1 .6 2.3 1.4 3 1.2 1 1.3 1 .7-.7-.6-1.8-.6-1.9 1-.4a7 7 0 0 1 1.8 3.1c.2 2 2.5 4.8 3.8 4.8.5 0 .6-.6.3-1.3-.4-.6.3-.1 1.4 1.2 1.2 1.3 2.1 3.1 2.1 4.1 0 1 1.8 3.1 4.2 4.7 2.3 1.5 4 3.2 4 3.7-.3.5.2 1.3 1 1.7.7.5.8.9.2.9a27 27 0 0 1-6.5-5.8c-25-26.9-26.5-28.2-31-28.2-4.7 0-3.6-1-22.3 19.9-14.4 16-14.7 16.3-16.4 14.5ZM527 480c0-1.4 2-2 3.6-1 1.4.7 1.2.9-1 1.3-1.4.3-2.6.2-2.6-.3Zm-22.5-1.9c-1.1-.5-3.5-.6-5.3-.3-1.7.3-3.2.1-3.2-.3 0-2-8.7-10.4-10.6-10.4-2.8 0-3.5-.9-2.2-3 1.3-2-2.2-7.4-6.4-9.6-1.7-.9-3-2.7-3.6-4.7-.7-2.7-1.3-3.3-4-3.5-2.9-.3-3.2-.7-3.2-3.5 0-3.3-4.6-9.7-7-9.7-.5 0-1-1.1-1-2.6 0-3.8-2.8-8.7-4.7-8-1 .4-2.5-.4-4-2-2.6-2.8-3-5.4-.8-5.4 2 0 2-.5-.7-7a51.3 51.3 0 0 1-2.6-17.8c-.5-14.2 1-22.8 6.2-33.1 5-10.4 5.9-11.6 11-16.2l8.5-8c2-2 4.6-4 5.9-4.4 1.2-.3 2.2-1 2.2-1.6 0-1.3-2.7-1.1-5 .3-2.4 1.5-4.6-.2-3.6-2.8.6-1.4 1.6-1.6 7.7-1.1 3.8.3 6.7.2 6.4-.2-.3-.5.2-1.4 1-2.1 1.3-1 2-1 4 0s4 1 12.7-.8c10.2-2 10.4-2 19.8-.2 6 1.2 9.9 1.5 10.5 1 1.6-1.7 5.6-1.1 6.2.8.4 1.6 1.5 1.8 7.6 1.8 6.6 0 7.2 0 7.2 1.9 0 2-.6 2.1-5.8 1-3.3-.9-3.7 1-.5 2 1.3.4 3.9 2.3 5.8 4.1l8.5 8.1c5.3 4.8 6 6 11.1 16.4a61 61 0 0 1 6.1 33.2 66.3 66.3 0 0 1-6 27.4c-.6.9-.6 1.3.2 1.3.6 0 1.1-.4 1.1-1s.7-1 1.6-1c1.6 0 1.6.1 0 1.8-.9 1-1.6 2.6-1.6 3.5 0 2-1.1 2.2-2.6.7-1.6-1.6-4.2 1.9-4.6 6-.2 2.3-1 3.8-2.3 4.4-2.3 1-6.5 7-6.5 9.2 0 .8-1 1.9-2.4 2.4-1.3.5-3.3 2-4.3 3.5l-4 5.4c-1.2 1.6-2.7 4-3.2 5.4-.8 2.1-.8 2.5.4 2 .8-.3 1.5 0 1.5.7 0 .8-.9 1-2.3.7-2.6-.7-4.4.6-7.7 5.3-1.3 2-3.2 4-4.2 4.8-1 .7-2.3 1.8-3 2.6-1.7 1.6-10.3 2.7-11.6 1.4-.6-.6-.8-1.7-.5-2.5.5-1.3-2.3-5.3-3.6-5.3-.3 0-1.7.9-3 1.9l-2.3 1.8 3-.4c3.9-.6 5.3 2.3 1.8 3.7a7.3 7.3 0 0 0-3 2c-.8 1.2-2.3 1.2-5.1 0Zm1.6-8.5c2.6-2.5 5.7-4.5 6.7-4.5s4 1.8 6.5 4 5.3 4 6.4 4c1 0 3.8-2.7 6.5-6.3l14.6-18.9c19.1-24.2 25-34.8 27.8-50.5a61 61 0 0 0-19-57 68.3 68.3 0 0 0-24.8-14.5c-8.6-3-28.6-3.1-36.8-.4a68 68 0 0 0-35.2 26 63.3 63.3 0 0 0-7.7 53.8c3.7 11.5 11.3 23.8 25.3 41.4 17.7 22 22.3 27.4 23.5 27.4.8 0 3.6-2 6.2-4.5Zm-20.6 5.4c-.4-.5-.5-1.2-.2-1.5.6-.7 3.7.7 3.7 1.7 0 1.3-2.7 1.1-3.5-.2Zm61.5-12a1 1 0 0 1 2 0c0 .6-.5 1-1 1a1 1 0 0 1-1-1Zm5.6-4.7c-1-1-.7-5.8.6-7.1 2.3-2.3 3.8-1.3 3.8 2.3 0 3.3-2.8 6.4-4.4 4.8Zm20-27c-.8-1.5.2-4 2-4.7 2.2-.8 2.5 1 .5 3.5-1 1.4-2 1.8-2.4 1.1ZM464 331c0-.6.7-1 1.5-1s1.5.4 1.5 1-.7 1-1.5 1-1.5-.4-1.5-1Zm93 0c0-.6.7-1 1.5-1s1.5.4 1.5 1-.7 1-1.5 1-1.5-.4-1.5-1Zm-52.8 86.5c-7-2-10.2-3.7-14.4-8a32 32 0 0 1 10.7-52.1 36.6 36.6 0 0 1 24 .4 32 32 0 0 1 16.4 42 31.2 31.2 0 0 1-36.7 17.7Zm6.2-5.8c-.5-3.6.8-6.3 2.5-5.3 1.5 1 1.4 5.9-.1 7.4-1 1-.6 1.2 1.6 1.2 3 0 7.6-2.1 9.6-4.4.7-.9 2-1.6 3-1.6 2.3 0 8-4.7 8-6.5 0-.7-.7-1.6-1.5-1.9-1.8-.7-2-3.7-.3-5.4 1.6-1.6 2.8-1.5 2.8.2 0 .8.4 1.7 1 2 1.4 1 3.6-10.2 2.2-11.6-.7-.7-1.2-2.6-1.2-4.4 0-1.7-.7-3.7-1.5-4.4-.8-.7-1.5-2.5-1.5-4 0-2.5-.4-2.9-2.8-2.7-2.3.2-2.7-.2-2.4-2 .3-2-.1-2.3-2.6-2.3-2 0-3.2-.7-4-2.5-1.3-2.9-5.7-4.3-8.3-2.6a6 6 0 0 1-6.8 0c-2.6-1.7-7.1.3-7.1 3 0 1.2-1 2.1-2.5 2.5a4.2 4.2 0 0 0-3 3c-1 3.7-4.1 6.2-6 4.7-1-1-1.6-.8-2.4.8-1.5 2.7-1.4 4.8.3 5.4 1.8.7 2.6 5.5 1.5 8.5-.6 1.6-1.5 2.2-2.4 1.8-1-.3-1.5 0-1.5 1 0 2.4 2.8 8.4 4 8.4.5 0 1 1 1 2.4 0 2.7 4.2 6.6 7 6.6 1 0 2.4.7 3.1 1.6 1.6 2 6.6 4.3 9 4.4 1.4 0 1.7-.7 1.3-3.3Zm-16.9-7.6c-.3-.5 0-1.2.5-1.6 1.2-.7 3 .2 3 1.6 0 1.2-2.7 1.2-3.5 0Zm37.2-19.7c-.4-.4-.7-1.6-.7-2.6 0-1.4.6-1.9 2.3-1.6 1.4.2 2.2 1 2.2 2.3 0 2-2.5 3.2-3.8 1.9Zm-26.7-17c-1.2-1.4-1-1.5 2-1.2 3.8.3 4.8 2.1 1.4 2.6a4 4 0 0 1-3.4-1.3Z"/>
</svg>